solid OpenSCAD_Model
  facet normal -1 0 0
    outer loop
      vertex 1 -10.5 -20.5
      vertex 1 -10.5 20.5
      vertex 1 10.5 -20.5
    endloop
  endfacet
  facet normal -1 0 0
    outer loop
      vertex 1 10.5 -20.5
      vertex 1 -10.5 20.5
      vertex 1 10.5 20.5
    endloop
  endfacet
  facet normal 0 -1 0
    outer loop
      vertex 1 -10.5 20.5
      vertex 1 -10.5 -20.5
      vertex 49 -10.5 -20.5
    endloop
  endfacet
  facet normal 0 -1 0
    outer loop
      vertex 49 -10.5 20.5
      vertex 1 -10.5 20.5
      vertex 49 -10.5 -20.5
    endloop
  endfacet
  facet normal 0 0 -1
    outer loop
      vertex 1 -10.5 -20.5
      vertex 1 10.5 -20.5
      vertex 49 -10.5 -20.5
    endloop
  endfacet
  facet normal 0 0 -1
    outer loop
      vertex 49 -10.5 -20.5
      vertex 1 10.5 -20.5
      vertex 49 10.5 -20.5
    endloop
  endfacet
  facet normal 0 1 0
    outer loop
      vertex 1 10.5 -20.5
      vertex 1 10.5 20.5
      vertex 49 10.5 -20.5
    endloop
  endfacet
  facet normal 0 1 0
    outer loop
      vertex 49 10.5 -20.5
      vertex 1 10.5 20.5
      vertex 49 10.5 20.5
    endloop
  endfacet
  facet normal 0 0 1
    outer loop
      vertex 1 10.5 20.5
      vertex 1 -10.5 20.5
      vertex 49 -10.5 20.5
    endloop
  endfacet
  facet normal 0 0 1
    outer loop
      vertex 49 10.5 20.5
      vertex 1 10.5 20.5
      vertex 49 -10.5 20.5
    endloop
  endfacet
  facet normal 1 0 0
    outer loop
      vertex 49 -10.5 20.5
      vertex 49 -10.5 -20.5
      vertex 49 10.5 -20.5
    endloop
  endfacet
  facet normal 1 0 0
    outer loop
      vertex 49 10.5 20.5
      vertex 49 -10.5 20.5
      vertex 49 10.5 -20.5
    endloop
  endfacet
  facet normal -1 0 0
    outer loop
      vertex -49 -10.5 -20.5
      vertex -49 -10.5 20.5
      vertex -49 10.5 -20.5
    endloop
  endfacet
  facet normal -1 0 0
    outer loop
      vertex -49 10.5 -20.5
      vertex -49 -10.5 20.5
      vertex -49 10.5 20.5
    endloop
  endfacet
  facet normal 0 -1 0
    outer loop
      vertex -49 -10.5 20.5
      vertex -49 -10.5 -20.5
      vertex -1 -10.5 -20.5
    endloop
  endfacet
  facet normal 0 -1 0
    outer loop
      vertex -1 -10.5 20.5
      vertex -49 -10.5 20.5
      vertex -1 -10.5 -20.5
    endloop
  endfacet
  facet normal 0 0 -1
    outer loop
      vertex -49 -10.5 -20.5
      vertex -49 10.5 -20.5
      vertex -1 -10.5 -20.5
    endloop
  endfacet
  facet normal 0 0 -1
    outer loop
      vertex -1 -10.5 -20.5
      vertex -49 10.5 -20.5
      vertex -1 10.5 -20.5
    endloop
  endfacet
  facet normal 0 1 0
    outer loop
      vertex -49 10.5 -20.5
      vertex -49 10.5 20.5
      vertex -1 10.5 -20.5
    endloop
  endfacet
  facet normal 0 1 0
    outer loop
      vertex -1 10.5 -20.5
      vertex -49 10.5 20.5
      vertex -1 10.5 20.5
    endloop
  endfacet
  facet normal 0 0 1
    outer loop
      vertex -49 10.5 20.5
      vertex -49 -10.5 20.5
      vertex -1 -10.5 20.5
    endloop
  endfacet
  facet normal 0 0 1
    outer loop
      vertex -1 10.5 20.5
      vertex -49 10.5 20.5
      vertex -1 -10.5 20.5
    endloop
  endfacet
  facet normal 1 0 0
    outer loop
      vertex -1 -10.5 20.5
      vertex -1 -10.5 -20.5
      vertex -1 10.5 -20.5
    endloop
  endfacet
  facet normal 1 0 0
    outer loop
      vertex -1 10.5 20.5
      vertex -1 -10.5 20.5
      vertex -1 10.5 -20.5
    endloop
  endfacet
  facet normal -1 0 0
    outer loop
      vertex 1 -35.5 -20.5
      vertex 1 -35.5 20.5
      vertex 1 -14.5 -20.5
    endloop
  endfacet
  facet normal -1 0 0
    outer loop
      vertex 1 -14.5 -20.5
      vertex 1 -35.5 20.5
      vertex 1 -14.5 20.5
    endloop
  endfacet
  facet normal 0 -1 0
    outer loop
      vertex 1 -35.5 20.5
      vertex 1 -35.5 -20.5
      vertex 49 -35.5 -20.5
    endloop
  endfacet
  facet normal 0 -1 0
    outer loop
      vertex 49 -35.5 20.5
      vertex 1 -35.5 20.5
      vertex 49 -35.5 -20.5
    endloop
  endfacet
  facet normal 0 0 -1
    outer loop
      vertex 1 -35.5 -20.5
      vertex 1 -14.5 -20.5
      vertex 49 -35.5 -20.5
    endloop
  endfacet
  facet normal 0 0 -1
    outer loop
      vertex 49 -35.5 -20.5
      vertex 1 -14.5 -20.5
      vertex 49 -14.5 -20.5
    endloop
  endfacet
  facet normal 0 1 0
    outer loop
      vertex 1 -14.5 -20.5
      vertex 1 -14.5 20.5
      vertex 49 -14.5 -20.5
    endloop
  endfacet
  facet normal 0 1 0
    outer loop
      vertex 49 -14.5 -20.5
      vertex 1 -14.5 20.5
      vertex 49 -14.5 20.5
    endloop
  endfacet
  facet normal 0 0 1
    outer loop
      vertex 1 -14.5 20.5
      vertex 1 -35.5 20.5
      vertex 49 -35.5 20.5
    endloop
  endfacet
  facet normal 0 0 1
    outer loop
      vertex 49 -14.5 20.5
      vertex 1 -14.5 20.5
      vertex 49 -35.5 20.5
    endloop
  endfacet
  facet normal 1 0 0
    outer loop
      vertex 49 -35.5 20.5
      vertex 49 -35.5 -20.5
      vertex 49 -14.5 -20.5
    endloop
  endfacet
  facet normal 1 0 0
    outer loop
      vertex 49 -14.5 20.5
      vertex 49 -35.5 20.5
      vertex 49 -14.5 -20.5
    endloop
  endfacet
  facet normal -1 0 0
    outer loop
      vertex -49 -35.5 -20.5
      vertex -49 -35.5 20.5
      vertex -49 -14.5 -20.5
    endloop
  endfacet
  facet normal -1 0 0
    outer loop
      vertex -49 -14.5 -20.5
      vertex -49 -35.5 20.5
      vertex -49 -14.5 20.5
    endloop
  endfacet
  facet normal 0 -1 0
    outer loop
      vertex -49 -35.5 20.5
      vertex -49 -35.5 -20.5
      vertex -1 -35.5 -20.5
    endloop
  endfacet
  facet normal 0 -1 0
    outer loop
      vertex -1 -35.5 20.5
      vertex -49 -35.5 20.5
      vertex -1 -35.5 -20.5
    endloop
  endfacet
  facet normal 0 0 -1
    outer loop
      vertex -49 -35.5 -20.5
      vertex -49 -14.5 -20.5
      vertex -1 -35.5 -20.5
    endloop
  endfacet
  facet normal 0 0 -1
    outer loop
      vertex -1 -35.5 -20.5
      vertex -49 -14.5 -20.5
      vertex -1 -14.5 -20.5
    endloop
  endfacet
  facet normal 0 1 0
    outer loop
      vertex -49 -14.5 -20.5
      vertex -49 -14.5 20.5
      vertex -1 -14.5 -20.5
    endloop
  endfacet
  facet normal 0 1 0
    outer loop
      vertex -1 -14.5 -20.5
      vertex -49 -14.5 20.5
      vertex -1 -14.5 20.5
    endloop
  endfacet
  facet normal 0 0 1
    outer loop
      vertex -49 -14.5 20.5
      vertex -49 -35.5 20.5
      vertex -1 -35.5 20.5
    endloop
  endfacet
  facet normal 0 0 1
    outer loop
      vertex -1 -14.5 20.5
      vertex -49 -14.5 20.5
      vertex -1 -35.5 20.5
    endloop
  endfacet
  facet normal 1 0 0
    outer loop
      vertex -1 -35.5 20.5
      vertex -1 -35.5 -20.5
      vertex -1 -14.5 -20.5
    endloop
  endfacet
  facet normal 1 0 0
    outer loop
      vertex -1 -14.5 20.5
      vertex -1 -35.5 20.5
      vertex -1 -14.5 -20.5
    endloop
  endfacet
  facet normal -1.77321e-016 -1 0
    outer loop
      vertex -10.5 -89 20.5
      vertex -10.5 -89 -20.5
      vertex 10.5 -89 -20.5
    endloop
  endfacet
  facet normal -1.77321e-016 -1 0
    outer loop
      vertex 10.5 -89 20.5
      vertex -10.5 -89 20.5
      vertex 10.5 -89 -20.5
    endloop
  endfacet
  facet normal 0 0 -1
    outer loop
      vertex -10.5 -89 -20.5
      vertex -10.5 -41 -20.5
      vertex 10.5 -89 -20.5
    endloop
  endfacet
  facet normal 0 0 -1
    outer loop
      vertex 10.5 -89 -20.5
      vertex -10.5 -41 -20.5
      vertex 10.5 -41 -20.5
    endloop
  endfacet
  facet normal -1 1.77321e-016 0
    outer loop
      vertex -10.5 -89 -20.5
      vertex -10.5 -89 20.5
      vertex -10.5 -41 -20.5
    endloop
  endfacet
  facet normal -1 1.77321e-016 0
    outer loop
      vertex -10.5 -41 -20.5
      vertex -10.5 -89 20.5
      vertex -10.5 -41 20.5
    endloop
  endfacet
  facet normal 0 0 1
    outer loop
      vertex -10.5 -41 20.5
      vertex -10.5 -89 20.5
      vertex 10.5 -89 20.5
    endloop
  endfacet
  facet normal 0 0 1
    outer loop
      vertex 10.5 -41 20.5
      vertex -10.5 -41 20.5
      vertex 10.5 -89 20.5
    endloop
  endfacet
  facet normal 1 -1.77321e-016 0
    outer loop
      vertex 10.5 -89 20.5
      vertex 10.5 -89 -20.5
      vertex 10.5 -41 -20.5
    endloop
  endfacet
  facet normal 1 -1.77321e-016 0
    outer loop
      vertex 10.5 -41 20.5
      vertex 10.5 -89 20.5
      vertex 10.5 -41 -20.5
    endloop
  endfacet
  facet normal 1.77321e-016 1 0
    outer loop
      vertex -10.5 -41 -20.5
      vertex -10.5 -41 20.5
      vertex 10.5 -41 -20.5
    endloop
  endfacet
  facet normal 1.77321e-016 1 0
    outer loop
      vertex 10.5 -41 -20.5
      vertex -10.5 -41 20.5
      vertex 10.5 -41 20.5
    endloop
  endfacet
endsolid OpenSCAD_Model
